<svg width="13" height="14" viewBox="0 0 13 14" fill="none" xmlns="http://www.w3.org/2000/svg">
<path d="M2.85443 7.68572C2.91479 7.6232 2.98707 7.57342 3.067 7.53932C3.14693 7.50522 3.23289 7.48749 3.31979 7.48719C3.4067 7.48688 3.49278 7.50401 3.57294 7.53755C3.65311 7.57109 3.72574 7.62037 3.78653 7.68247C3.84733 7.74456 3.89505 7.81822 3.92688 7.89908C3.95872 7.97995 3.97401 8.06637 3.97187 8.15324C3.96972 8.24012 3.95017 8.32568 3.91438 8.40487C3.87859 8.48406 3.82729 8.55527 3.7635 8.61429L2.24436 10.1H12.35C12.5224 10.1 12.6877 10.1685 12.8096 10.2904C12.9315 10.4123 13 10.5776 13 10.75C13 10.9224 12.9315 11.0877 12.8096 11.2096C12.6877 11.3315 12.5224 11.4 12.35 11.4H2.24436L3.7635 12.8857C3.88103 13.0075 3.94645 13.1702 3.94586 13.3395C3.94527 13.5087 3.87871 13.671 3.76034 13.7919C3.64196 13.9128 3.48109 13.9828 3.31193 13.987C3.14276 13.9912 2.97864 13.9292 2.85443 13.8143L0.195929 11.2143C0.13416 11.1538 0.0850891 11.0815 0.0515891 11.0018C0.0180891 10.9221 0.000833829 10.8365 0.000833829 10.75C0.000833829 10.6635 0.0180891 10.5779 0.0515891 10.4982C0.0850891 10.4185 0.13416 10.3462 0.195929 10.2857L2.85443 7.68572ZM10.1456 1.18572C10.0852 1.1232 10.0129 1.07342 9.933 1.03932C9.85307 1.00522 9.76711 0.98749 9.68021 0.987187C9.5933 0.986883 9.50722 1.00401 9.42706 1.03755C9.34689 1.07109 9.27426 1.12037 9.21347 1.18247C9.15267 1.24456 9.10495 1.31822 9.07311 1.39908C9.04128 1.47995 9.02599 1.56637 9.02813 1.65325C9.03028 1.74012 9.04983 1.82568 9.08562 1.90487C9.12141 1.98406 9.17271 2.05527 9.2365 2.11429L10.7556 3.60001H0.65C0.564641 3.60001 0.480117 3.61682 0.401256 3.64949C0.322394 3.68215 0.250739 3.73003 0.190381 3.79039C0.130023 3.85075 0.0821439 3.9224 0.0494783 4.00126C0.0168128 4.08012 0 4.16465 0 4.25001C0 4.33537 0.0168128 4.41989 0.0494783 4.49875C0.0821439 4.57761 0.130023 4.64927 0.190381 4.70963C0.250739 4.76998 0.322394 4.81786 0.401256 4.85053C0.480117 4.88319 0.564641 4.90001 0.65 4.90001H10.7556L9.2365 6.38572C9.11897 6.50746 9.05355 6.67024 9.05414 6.83945C9.05473 7.00867 9.12129 7.17098 9.23966 7.2919C9.35804 7.41282 9.51891 7.4828 9.68807 7.48698C9.85724 7.49117 10.0214 7.42921 10.1456 7.31429L12.8041 4.71429C12.8658 4.65377 12.9149 4.58154 12.9484 4.50181C12.9819 4.42209 12.9992 4.33648 12.9992 4.25001C12.9992 4.16353 12.9819 4.07793 12.9484 3.9982C12.9149 3.91848 12.8658 3.84624 12.8041 3.78572L10.1456 1.18572Z" fill="#DDDDDD"/>
</svg>
