<svg width="457" height="49" viewBox="0 0 457 49" fill="none" xmlns="http://www.w3.org/2000/svg">
<circle cx="24.2659" cy="24.7666" r="8.98856" stroke="#757575" stroke-width="1.5" stroke-linecap="round" stroke-linejoin="round"/>
<path d="M30.5176 31.4851L34.0416 35" stroke="#757575" stroke-width="1.5" stroke-linecap="round" stroke-linejoin="round"/>
<path d="M1 40.2117V10.2175C1 9.75365 1.16125 9.3042 1.45614 8.94612L7.39879 1.73004C7.77939 1.26788 8.34702 1.00053 8.94573 1.00146L331.541 1.49852C332.147 1.49946 332.72 1.77554 333.099 2.24913L339.9 10.7494C340.279 11.2238 340.854 11.5 341.461 11.5H451.672C452.202 11.5 452.711 11.7107 453.086 12.0858L455.914 14.9142C456.289 15.2893 456.5 15.798 456.5 16.3284V37.1716C456.5 37.702 456.289 38.2107 455.914 38.5858L446.586 47.9142C446.211 48.2893 445.702 48.5 445.172 48.5H259.76C258.99 48.5 258.288 48.0577 257.956 47.3629L253.544 38.1371C253.212 37.4423 252.51 37 251.74 37H223.76C222.99 37 222.288 37.4423 221.956 38.1371L217.544 47.3629C217.212 48.0577 216.51 48.5 215.74 48.5H8.8691C8.31474 48.5 7.78525 48.2699 7.40699 47.8646L1.53789 41.5763C1.19224 41.206 1 40.7183 1 40.2117Z" stroke="#5C89E1"/>
<path d="M338.6 1.8C338.353 1.47039 338.588 1 339 1H442.805C442.93 1 443.051 1.04734 443.144 1.1326L448.56 6.1326C448.895 6.44132 448.676 7 448.221 7H342.75C342.593 7 342.445 6.92591 342.35 6.80001L338.6 1.8Z" fill="#5C89E1"/>
<path d="M249.471 41H226.114C225.921 41 225.745 41.1112 225.662 41.2856L222.339 48.2856C222.182 48.6173 222.424 49 222.791 49H252.533C252.894 49 253.136 48.6299 252.991 48.2996L249.929 41.2996C249.849 41.1176 249.669 41 249.471 41Z" fill="#5C89E1"/>
</svg>
