<svg width="15" height="15" viewBox="0 0 15 15" fill="none" xmlns="http://www.w3.org/2000/svg">
<path d="M12.9268 2.52625C13.0226 2.49843 13.1236 2.49327 13.2217 2.5112C13.3199 2.52913 13.4125 2.56964 13.4923 2.62955C13.5721 2.68945 13.6368 2.76709 13.6814 2.85634C13.726 2.94558 13.7493 3.04398 13.7493 3.14375L13.7487 6.71375C13.7485 6.83315 13.7151 6.95013 13.6522 7.05163C13.5893 7.15313 13.4995 7.23515 13.3927 7.28852C13.2859 7.34189 13.1663 7.3645 13.0474 7.35384C12.9285 7.34317 12.8149 7.29965 12.7193 7.22813L11.693 6.45625L9.08054 9.93625C8.92831 10.1388 8.70673 10.278 8.45822 10.3274C8.20972 10.3768 7.95174 10.3327 7.73366 10.2038L7.63991 10.1413L5.55429 8.57438L2.79304 12.2525C2.53054 12.6025 2.05241 12.6944 1.68241 12.4825L1.59241 12.4231C1.42558 12.2978 1.31018 12.1159 1.26784 11.9116C1.2255 11.7072 1.25912 11.4945 1.36241 11.3131L1.42179 11.2231L4.59491 6.99688C4.74708 6.79408 4.96878 6.65461 5.21747 6.60524C5.46616 6.55587 5.72432 6.60008 5.94241 6.72938L6.03554 6.79188L8.12054 8.35813L10.3218 5.42688L9.29241 4.65375C9.20331 4.58655 9.13321 4.49734 9.08899 4.39487C9.04477 4.2924 9.02795 4.1802 9.04018 4.06927C9.05241 3.95834 9.09326 3.85249 9.15874 3.76211C9.22422 3.67174 9.31206 3.59994 9.41366 3.55375L9.49929 3.5225L12.9274 2.52563L12.9268 2.52625Z" fill="#DDDDDD"/>
</svg>
