<svg width="328" height="992" viewBox="0 0 328 992" fill="none" xmlns="http://www.w3.org/2000/svg">
<path d="M274.737 0.857422L326.971 45.2228C327.307 45.5078 327.5 45.9258 327.5 46.3661V87.3572L327.5 925.476C327.5 925.911 327.312 926.324 326.983 926.609L313.361 938.435C312.814 938.91 312.5 939.599 312.5 940.323V980.055C312.5 980.496 312.306 980.914 311.97 981.199L300.237 991.144C299.966 991.374 299.622 991.5 299.267 991.5H21.3314C20.5029 991.5 19.8314 990.828 19.8314 990V972.485C19.8314 971.684 19.4477 970.932 18.7995 970.462L1.12192 957.636C0.732999 957.353 0.502806 956.902 0.502805 956.422L0.500006 2.25372C0.500003 1.42578 1.17073 0.754456 1.99859 0.753723L273.765 0.500671C274.121 0.500366 274.466 0.62677 274.737 0.857422Z" stroke="#5C89E1" stroke-opacity="0.2"/>
</svg>
