<svg width="1681" height="1035" viewBox="0 0 1681 1035" fill="none" xmlns="http://www.w3.org/2000/svg">
<path d="M1597.78 0.856996L1598.1 0.475999L1597.78 0.857L1615.05 15.5327C1615.5 15.9168 1616.07 16.1277 1616.66 16.1277H1652.65C1653 16.1277 1653.35 16.2542 1653.62 16.4847L1653.94 16.1037L1653.62 16.4847L1679.97 38.8821C1680.31 39.1671 1680.5 39.585 1680.5 40.0251V940.072V1427.5C1680.5 1428.33 1679.83 1429 1679 1429H3.00001C2.17157 1429 1.5 1428.33 1.5 1427.5V940.072V180.252C1.5 179.783 1.71904 179.341 2.09208 179.058L34.7376 154.235C35.3594 153.762 35.7244 153.026 35.7244 152.245V39.0611C35.7244 38.5968 35.9395 38.1587 36.3068 37.8746L84.2251 0.813472C84.4879 0.610254 84.8106 0.5 85.1428 0.5H1596.81C1597.16 0.5 1597.51 0.626542 1597.78 0.856996Z" stroke="#5C89E1" stroke-opacity="0.3"/>
<path d="M1650 21.2427L1674.5 41.7425L1674.5 62.6447L1667.65 62.6447L1618.5 21.2419L1650 21.2427Z" fill="#5C89E1"/>
<path d="M28.9519 44L29 148.603L0 170L2.65063e-06 68.3014L28.9519 44Z" fill="#5C89E1"/>
</svg>
